<?xml version="1.0" encoding="UTF-8"?><svg id="_层_1" xmlns="http://www.w3.org/2000/svg" viewBox="0 0 840.3 840.09"><defs><style>.cls-1{fill:none;fill-rule:evenodd;stroke:#bbb4a2;stroke-miterlimit:10;stroke-width:3px;}</style></defs><path class="cls-1" d="M400.04,2.21c216-13.07,411.82,154.77,435.84,368.64,23.6,197.74-97.37,389.08-291.36,449.28-95.77,29.19-203.27,24.11-294.24-17.76C71.44,726.66-30,523.41,10.28,334.85,46.71,152.52,212.02,9.8,400.04,2.21Z"/><path class="cls-1" d="M410.6,75.17C7.44,97.95-48.87,653.57,340.52,756.3c29.32,6.09,59.58,10.05,89.76,9.12,11.19-2.52,23.99-.29,35.04-2.88,20.66-2.98,42.31-8.16,61.92-13.92C900.44,616.45,812.01,76.77,410.6,75.17Z"/><path class="cls-1" d="M410.12,92.45V748.13c-38-.33-75.18-9.24-109.44-22.56-10.38-4.49-20.57-7.91-29.76-13.44-2.21-3.09-1.31-8.79-2.4-12.96-10.98-65.11-22.25-132.75-33.12-197.76,1.12,63.99,2.24,128.01,3.36,192h-.48C38.31,559.81,44.86,260.48,252.68,138.53c6.63,67.06,10.51,135.57,17.28,202.08,4.64-72.95,9.28-145.93,13.92-218.88,35.87-15.44,75.91-28.47,126.24-29.28Z"/><path class="cls-1" d="M429.8,92.45c285.54,8.82,423.61,352.55,225.12,556.32-9.9-48.43-21.15-95.54-31.2-144h-51.36c-3.58,70.51-6.2,140.16-9.12,210.72-37.87,16.89-79.38,31.78-133.44,32.64V92.45Z"/><path class="cls-1" d="M576.68,404.93h25.44c-6.77-32.19-14.15-64.32-21.12-96.48h-.48l-3.84,96.48Z"/><path class="cls-1" d="M112.52,615.17c-.32,4.97-3.58,9.08-5.28,12.96-4.42,12.05-9.66,23.03-14.4,35.04,2.21,1.62,2.76,5.02,5.28,6.24v-.48c15.38-8.93,28.99-21.15,44.64-29.76-.44-.52,.04-.04-.48-.48-.56-2.04-2.16-4.76-4.32-5.28-7.84,6.31-17.13,11.13-25.44,17.28-2.93,1.95-5.69,5.46-9.6,6.24,.31-4.52,3.26-8.02,4.8-11.52,4.63-12.65,10.43-23.72,14.88-36.48-1.6-2.24-3.2-4.48-4.8-6.72h-.48v.48c-15.21,9.64-29.49,19.96-44.64,29.76,1.28,2.08,2.56,4.16,3.84,6.24,8.29-5.13,16.27-10.86,24.48-16.32,3.38-2.25,6.81-6.61,11.52-7.2Z"/><path class="cls-1" d="M739.6,607.25c-5.36,5.65-9.65,8.71-9.6,20.16,2.11,4.1,2.58,4.88,6.72,7.2,10.65,.6,11.2-4.71,18.24-7.68,5.03-2.12,7.62,.93,7.68,5.76-4.12,5.25-4.36,7.93-11.04,11.04v.48h.48c1.46,1.55,3.54,3.09,6.24,3.36,2.74-3.44,15.18-14.23,9.6-22.08-1.26-4.23-5.35-6.82-11.04-6.72-6.96,1.6-9.27,8.32-17.76,8.64-9.07-5.49,3.1-14.08,6.24-16.8-1.92-1.12-3.84-2.24-5.76-3.36Z"/><path class="cls-1" d="M714.92,649.73c-2.42-.42-2.77-1.67-4.8-2.4v.48c-1.41,1.37-2.16,3.19-3.84,4.32v.48h.48c2.38,3.33,6.76,5.24,10.08,7.68,5.41,3.96,14.59,13.72,20.64,15.84v-.48c1.4-1.28,2.94-3.05,3.36-5.28-7.37-5.39-24.38-14.56-21.6-25.44,.98-.99,4.29-4.27,4.8-5.28-1.79-.56-3.64-2.09-4.8-3.36-5.73,1.95-5.06,7.57-4.32,13.44Z"/><path class="cls-1" d="M130.76,660.77c-23.58,6.37-24.86,34.28-1.92,39.84,.89-1.3,2.52-2.51,3.84-3.36v-.48c-7.88-.28-9.99-5.87-13.92-10.08-.46-5.69-.16-12.93,5.76-13.44,5.08,6.89,12.19,12.36,16.8,19.68h.48v-.48c15.45-9.81,11.65-32.12-11.04-31.68Z"/><path class="cls-1" d="M700.04,665.57c-7.67,1.13-14.85,7.65-17.28,15.36-4,14.29,11.19,26.23,22.56,25.92,27.98-7.26,19.34-39.64-5.28-41.28Z"/><path class="cls-1" d="M133.64,666.53c7.88-.2,12.18,3.65,12,11.52-1.87,2.55-1.37,5.56-5.76,5.76-2.16-6.04-10.81-8.58-12-15.36h.96c1.21-1.07,3.4-.97,4.8-1.92Z"/><path class="cls-1" d="M697.16,672.29c14.67-.5,27.56,16.87,14.88,25.92-15.21,10.02-34.81-17.19-14.88-25.92Z"/><path class="cls-1" d="M175.4,698.69c-.13,4.03-2.13,7.09-3.36,10.08-2.07,9.87-7.27,17.81-9.6,27.84,2.64,.83,3.7,2.93,6.24,3.84,3.38-4.76,10.59-8.09,15.36-11.52,2.54-1.83,4.27-4.81,8.16-5.28-3,9.45-7.03,18.16-10.08,27.36,2.75,.94,3.56,3.21,6.72,3.84,10.24-8.19,21.56-16.14,31.68-24.48-2.01-1.19-3.44-3.03-5.76-3.84-3.18,4.68-9.85,8.13-14.4,11.52-2.89,2.15-4.85,5.99-9.12,6.72,.67-9.82,8.51-18.97,10.08-28.8-1.79-.56-3.64-2.09-4.8-3.36-3.14,1.04-4.8,3.99-7.2,5.76-4.83,3.55-11.76,6.79-15.36,11.52h-1.92c.14-9.32,8.71-19.44,9.6-27.84-2.97-3.03-12-12.48-12-12.48l5.84-7.32c-1.86-1.05-3.3-2.57-3.3-2.57l-7.81,6.53s-2.55-2.39-4.03-3.66c-1.84,1.26-4.14,3.18-4.14,3.18,0,0,2.14,2.56,4.32,4.8-3.23,2.07-17.3,17.55-18.72,21.12-2.35,5.93,4.03,12.24,8.64,12.96,.83-1.31,2.06-2.51,3.36-3.36v-.48c-3.83-.2-5.71-2.75-5.76-6.72,3.22-4.08,13.4-18.82,18.72-19.2,1.56,2.35,4.2,3.44,5.76,5.76h.48v-.48c1.04-.9,.58-1.07,2.4-1.44Z"/><path class="cls-1" d="M657.32,687.65c-1.12,1.76-2.24,3.52-3.36,5.28,1.3,3.62,4.94,4.06,5.28,8.64-4.7,1.74-3.72,4.57-.96,7.2h.48v-.48c2.1-1.1,2.68-2.82,5.28-3.36,6.83,6.84,11.99,16.01,20.16,21.12,5.91,.49,12.15-2.33,12.96-8.16-1.3-.85-2.09-2.02-2.88-3.36h-.48c-.68,2.57-2.29,3.2-3.84,4.8-7.67,1.04-13.28-10.23-17.76-15.36-1.27-1.69-2.83-1.64-3.36-4.32,2.34-1.49,5.2-3.91,6.72-6.24-1.3-.85-2.09-2.02-2.88-3.36-3.86,1.11-4.11,4.63-8.64,5.28-1.73-2.69-4.39-5.53-6.72-7.68Z"/><path class="cls-1" d="M664.52,740.45c2.48,.55,2.12,2.05,4.32,2.88,1.27-1.63,3.37-2.38,4.8-3.84h-.48c-14.21-19.25-22.4-43.15-43.2-13.44,.65,2.09,2.61,4.64,4.32,5.76,.78-6.53,5.37-8.94,9.12-12.48,5.13-.23,8.89,.68,9.6,4.8-6.72,7.2-18.89,14.4-10.56,26.4,7.05,9.65,22.17,.77,22.08-10.08Z"/><path class="cls-1" d="M615.08,738.53h-1.44c-.76-1.69-1.2-2.93-3.36-3.36-1.08,1.36-3.29,2.47-4.8,3.36,3.73,8.3,9.68,15.95,14.4,23.52,1.79,2.87,3.16,8.67,6.72,9.6,1.63-1.55,4.13-1.75,4.8-4.32-2.24-2.21-3.07-5.4-4.8-8.16-4.29-6.83-9.2-11.01-6.72-22.08,1.33-.79,6.32-3.38,6.72-4.8-1.75-1.49-1.75-4.1-4.32-4.8-3.69,3.35-7.26,3.67-7.2,11.04Z"/><path class="cls-1" d="M655.4,728.93h1.92c4.57,5.71,5.77,13.07-1.92,18.24-2.46,.04-4.91-.11-6.72-.48-6.52-9.94,2.64-11.8,6.72-17.76Z"/><path class="cls-1" d="M228.68,736.13c-9.64,2.01-16.23,7.81-19.2,17.76-3.84,12.16,10.37,26.72,21.12,24.48,24.26-5.07,27.44-40.62-1.92-42.24Z"/><path class="cls-1" d="M584.84,736.13c-1.52,2.23-4.17,3.16-4.8,6.24,1.8,1.72,3.22,4.35,3.36,7.68-1.98,.82-4.3,1.4-4.8,3.84,1.45,1.67,.93,3.43,3.84,3.84,1.19-1.17,2.57-1.76,4.8-1.92,1.78,4.03,4.28,7.81,6.24,11.52,3.3,7.11,5.05,15.65,14.88,14.88,3.02-2.22,7.29-2.35,8.64-6.24-1.36-1.49-1.67-3.6-3.36-4.8-.81,2.55-3.03,3.69-6.24,3.84-5.61-2.5-11.76-18.18-13.44-23.52,2.4-1.01,7.08-2.42,7.68-5.28-1.04-1.1-1.73-2.89-2.4-4.32-2.96,1.38-5.31,3.46-9.12,3.84-.68-2.95-3.02-8.04-5.28-9.6Z"/><path class="cls-1" d="M227.72,743.33c20.63-1.74,17.31,20.88,4.8,27.84-9.55,.85-10.5-1.81-15.36-6.72-1.16-13.33,3.03-15.28,10.56-21.12Z"/><path class="cls-1" d="M272.76,803.45c2.34,.35,5.18,2.12,6.72,1.44,2.58-2.92,4.66-10.54,5.28-14.88,4.98,1.68,7.64,16.27,10.56,21.12,2.88,.8,5.76,1.6,8.64,2.4v-.48h.48c-2.83-6.49-9.86-17.97-10.56-24.96,7.2-3.84,14.4-7.68,21.6-11.52v-.96c-12.52-7.14-16.67,5.38-27.84,7.68,2.59-11.85,7.83-21.31,10.56-33.12-.52-.44-.04,.04-.48-.48-2.03-.29-5.25-2.03-6.24-1.44-2.76,2.54-2.78,8.26-4.32,12-4.47,14.14-10.77,28.5-14.4,43.2Z"/><path class="cls-1" d="M532.52,755.01c-1.68,1.72-2.95,2.12-3.36,5.28,.53,.66,.72,1.38,.96,2.4,1.61,.95,2.28,1.71,4.8,1.92,2.04-1.65,4.23-2.65,4.32-5.76-1.17-1.2-2.23-2.63-3.36-3.84h-3.36Z"/><path class="cls-1" d="M279.52,768.33c.38-2.75,1.73-4.08,2.4-6.72-5.95-3.56-6.92-2.18-13.92-1.44,.25-1.83,.67-2.02,.96-3.84-8.78-6.62-8.7,2.11-11.52,8.64-2.91,7.34-9.65,17.01-10.56,24.48,1.45,1.38,4.39,2.53,6.72,2.88,2.67-7.81,7.65-23.33,15.36-26.88,6.5-.11,6.62,1.8,10.56,2.88Z"/><path class="cls-1" d="M574.2,764.05c-.2-2.78-1.3-3.81-1.92-6.24-.9-.31-1.88-.46-3.36-.48-9.2,3.11-11.09,3.01-16.8,11.52-1.74,25.05,26.57,5.95,25.44,19.68-2.67,8.04-10.8,4.34-17.28,6.24,1.6,3.92,1.53,6.97,7.68,6.72,5.43-3.45,11.5-2.88,15.36-8.64,2.77-3.3,2.5-8.45,.48-11.04-4.43-8.52-12.05-4.92-22.56-6.72-5.33-8,3.93-11.35,12.96-11.04Z"/><path class="cls-1" d="M348.2,823.57c2.72,.48,5.44,.96,8.16,1.44,.31-.9-7.2-58.56-7.2-58.56l-6.82-1.32-33.5,48.84,9.06,2.66,8.98-14s15.27,4.08,19.88,5.1c0,1.28,1.44,13.04,1.44,15.84Z"/><path class="cls-1" d="M476.88,768.45c-2.23,1.59-3.89,2.91-3.84,6.24,2.06,2.22,2.1,3.43,6.72,3.36,1.78-1.82,3.12-2.21,3.36-5.76-1.95-2.11-2.11-3.7-6.24-3.84Z"/><path class="cls-1" d="M394.76,791.45c-4.67-1.03-8.31-6.54-16.32-4.32-12.11,3.35-20,23.12-11.04,35.52,2.74,3.79,10.42,7.83,17.28,5.76,2.73-.82,4-2.92,7.2-3.36v3.36c.98,.34,2.24,.48,3.84,.48,.74,.5,1.96,.49,3.36,.48,3.65-14.03,1.35-31.75,4.8-46.08,.49-1.66,.48-11.52,.48-11.52-.95-1.09-2.18-1.03-4.32-.96-.68-.46-1.57-.47-2.88-.48v.48h-.48c-.64,6.88-1.28,13.76-1.92,20.64Z"/><path class="cls-1" d="M547.4,808.69c2.96-.17,4.65-1.28,7.2-1.92v-2.4c-3.61-7.82-5.78-17.88-9.6-25.92-1.25-3.04-.87-8.3-4.32-9.12-1.92,.8-3.84,1.6-5.76,2.4,4.16,12.32,8.32,24.64,12.48,36.96Z"/><path class="cls-1" d="M502.28,783.21c-.22-2.41-.78-3.48-3.36-3.36-2.06,1.11-5.31,.35-4.8,3.84,3.25,11.19,5.83,23.76,8.64,35.52,.83,.29,1.51,.43,2.88,.48,.96-.71,2.23-.87,3.84-.96,.54-1,.69-.88,.96-2.4-1.52-7.83-10.71-29,0-32.64,2.58-1.97,7.9-.87,9.6,.96,2.55,2.73,7.49,22.85,7.68,28.32,1.09,.59,1.08,.79,2.88,.96,1.65-1.07,3.84-.55,4.8-2.4,.83-2.29-2.05-9.58-2.88-12.48-2-6.99-2.05-14.09-5.76-19.2-5.83-8.03-19.42-4.18-23.04,3.36h-1.44Z"/><path class="cls-1" d="M345.32,799.57l-15.36-3.36,12.96-18.72c.04,.49,0,0,2.4,22.08Z"/><path class="cls-1" d="M482.64,783.73c-1.27,.87-3.72,.96-5.76,.96v.96c-.63,8.94,3.63,20.59,4.8,29.76,.92,4.23-.77,9.74,5.28,8.64,.73-.5,2.36-.76,3.36-.96-.28-12.79-4.56-25.98-6.24-38.88l-1.44-.48Z"/><path class="cls-1" d="M450.92,786.09c-8.45,2.9-5.18,4.56-10.56,7.2-2.14-4.33-9.25-7.36-15.36-4.8-2.59,1.08-3.73,3.63-6.72,4.32-.32-1.5-.83-2.28-1.44-3.36-1.5,.52-4.04,.51-6.24,.48-.42,.57-.39,.54-.96,.96,1.96,6.39,1.76,19.3,2.4,26.4,.77,8.32-2.6,14.02,8.16,12.48,.56-1.62,.51-4.39,.48-6.72-1.16-10.3-5.73-31.72,10.56-27.84,8.43,6.94,3.83,22.54,6.24,32.64,.73,.26,.81,.32,1.92,.48,1.03-.69,3.51-.53,5.28-.48,.52-1.5,.51-4.04,.48-6.24-.96-1.43-.03-4.14-.48-6.24-2.86-10.44-.62-25.77,11.04-21.6,6.31,2.34,4.73,24.06,6.24,32.16,.77,.27,1.15,.38,2.4,.48,.96-.64,3.12-.53,4.8-.48,.52-1.5,.51-4.04,.48-6.24-1.84-3.13-.07-8.47-.96-12.48-2.98-13.47-.47-21.42-17.76-21.12Z"/><path class="cls-1" d="M381.8,793.85c7.13-.08,8.24,2.73,11.52,6.24,.77,12.91-.11,14.92-7.2,21.6-3.1,.04-6.17-.18-8.64-.48-9.01-6.32-6.5-22.54,1.92-26.88,1.22-.04,1.78-.06,2.4-.48Z"/></svg>