<?xml version="1.0" encoding="UTF-8"?><svg id="_层_1" xmlns="http://www.w3.org/2000/svg" viewBox="0 0 960 960"><defs><style>.cls-1{fill:none;fill-rule:evenodd;stroke:#bbb4a2;stroke-miterlimit:10;stroke-width:2px;}</style></defs><path class="cls-1" d="M459.84,61.92c209.59-3.06,346.61,113.79,407.04,259.2,39.35,94.69,41.53,221.03,.96,316.8-50.9,120.15-142.1,204.75-273.12,244.8-19.39,5.93-40.14,8.54-61.44,12.48-11.36,.96-22.72,1.92-34.08,2.88-12.8-.16-25.6-.32-38.4-.48-16.81-2.78-32.09-1.22-47.52-4.32-34.01-6.83-64.97-14.9-93.12-26.88-117.42-49.97-200.68-137.91-240.48-265.44-14.61-46.8-25.99-118.35-14.4-178.08,5.43-28,9.33-55.02,18.72-79.2,48.33-124.41,128.85-208.84,252.96-257.28,24.31-9.49,51.18-14.52,79.2-20.16,14.56-1.44,29.12-2.88,43.68-4.32Z"/><path class="cls-1" d="M470.4,134.88c-14.24,1.28-28.48,2.56-42.72,3.84-23.15,4.39-45.65,9.02-65.76,16.8-102.2,39.53-169.66,110.37-208.8,213.12-6.88,18.05-10.58,38.59-14.4,59.04-9.58,51.36-1.22,111.82,11.52,152.64,31.97,102.39,98.99,175.63,192.96,216,33.89,14.56,61.84,19.96,105.12,26.88,11.63,1.86,28.24,3.96,41.76,1.92,30.81-4.65,58.48-5.07,84.48-12.96,106.48-32.31,182.64-101.94,224.16-199.2,35.77-83.79,32.59-188.45-2.4-269.76-50.32-116.92-159.41-207.32-325.92-208.32Z"/><path class="cls-1" d="M469.92,152.16V807.84c-52.12,.98-105.86-16.91-139.68-36-11.68-70.23-23.36-140.49-35.04-210.72,1.12,63.99,2.24,128.01,3.36,192-21.14-11.39-42.92-30.71-57.6-48.96-6.72-7.52-13.44-15.04-20.16-22.56-25.08-33.18-45.24-71.21-58.08-116.64-4.91-17.36-5.84-34.48-9.12-54.24-3.13-18.86-3.29-47.19,0-66.24,2.96-17.19,4.69-33.72,9.12-49.44,23.77-84.28,79.08-159.27,149.28-196.8h.48c5.76,67.35,11.52,134.73,17.28,202.08,4.64-72.95,9.28-145.93,13.92-218.88,35.36-15.46,76.3-29.13,126.24-29.28Z"/><path class="cls-1" d="M489.6,152.16c44.06-.93,83.4,11.17,114.72,24.48,91.71,38.97,158.24,107.81,189.6,206.88,32.6,102.97,3.51,211.27-41.28,278.4-10.57,15.84-22.4,35.23-37.44,46.56h-.48c-10.4-48-20.8-96-31.2-144h-51.36c-3.04,70.23-6.08,140.49-9.12,210.72-37.17,17.49-79.9,31.89-133.44,32.64V152.16Z"/><path class="cls-1" d="M636.48,464.64h25.44c-7.2-32.16-14.4-64.32-21.6-96.48-1.28,32.16-2.56,64.32-3.84,96.48Z"/><path class="cls-1" d="M177.12,661.92l-44.64,30.24,3.84,6.24,1.44-1.44,34.56-22.08v1.44l-19.68,46.08,4.8,6.72,45.12-30.24v-.48l-3.36-5.28-36.48,23.52v-1.44l19.68-46.56-5.28-6.72h0Z"/><path class="cls-1" d="M794.4,672.96c-5.72,5.17-16.8,22.17-2.88,27.36,9.34,3.48,14.13-7.29,22.56-8.16,1.12,.96,2.24,1.92,3.36,2.88-.12,8.08-5.42,11.81-11.04,14.4l.48,.96c2.5,1.18,4.21,3.58,6.72,1.92,9.63-4.19,16.22-27.7-1.44-27.84-6.44,2.56-10.18,8-17.76,8.64-1.54-.78-2.01-.89-2.88-2.4-2.81-6.58,4.71-12.06,8.64-13.92l-.48-.96c-1.76-.96-3.52-1.92-5.28-2.88Z"/><path class="cls-1" d="M778.08,696c-3.73,4.09-4.32,6.64-3.36,13.44-2.58-.74-3.19-2-5.28-1.92-1.12,1.44-2.24,2.88-3.36,4.32,.48,.64,.96,1.28,1.44,1.92,6.48,3.01,25.48,22.26,30.24,21.6,.96-1.44,1.92-2.88,2.88-4.32-.32-.64-.64-1.28-.96-1.92-8.06-3.53-20.77-12.11-20.64-24,1.34-2.67,2.64-3.51,4.8-5.28v-.48c-1.92-1.12-3.84-2.24-5.76-3.36Z"/><path class="cls-1" d="M190.56,720.48c-11.55,5.89-26.17,15.57-14.4,31.2,2.98,3.96,6.28,7.95,12.48,8.64l3.84-3.84c-11.32-.61-19.89-15.94-9.6-23.52,6.26,2.56,14.62,14.1,18.24,19.68,2.24-2.08,4.48-4.16,6.72-6.24,6.01-13.69,.78-26.47-17.28-25.92Z"/><path class="cls-1" d="M759.84,725.28c-7.98,3.53-14.79,6.62-17.28,15.36-3.66,12.82,9.91,28.16,22.56,25.92,24.99-4.42,19.95-40.26-5.28-41.28Z"/><path class="cls-1" d="M193.44,726.24c12.08-.43,13.79,9.82,8.64,17.28h-2.4c-2.85-5.85-10.2-8.69-12-15.36,1.92-.64,3.84-1.28,5.76-1.92Z"/><path class="cls-1" d="M756.96,732c16.62-.78,28.07,20.95,12.48,27.36-16.59,6.82-28.74-17.53-12.48-27.36Z"/><path class="cls-1" d="M230.4,738.72c-1.92,2.08-3.84,4.16-5.76,6.24-1.76-1.12-3.52-2.24-5.28-3.36l-3.36,3.36v.48c1.44,1.28,2.88,2.56,4.32,3.84v.96c-6.93,5.3-15.66,14.54-19.2,23.04,.44,5.65,4.17,9.98,9.12,11.04,1.12-1.28,2.24-2.56,3.36-3.84-3.91-.42-5.6-2.59-5.76-6.72,4.71-6.99,10.62-13.67,16.8-19.2h1.92l5.76,5.76c1.25-1.02,1-1.28,2.88-1.92v1.92c-4.32,12-8.64,24-12.96,36,1.92,1.28,3.84,2.56,5.76,3.84,7.52-5.6,15.04-11.2,22.56-16.8h1.44c-3.36,9.12-6.72,18.24-10.08,27.36,1.76,1.28,3.52,2.56,5.28,3.84,.64-.32,1.28-.64,1.92-.96,10.4-7.68,20.8-15.36,31.2-23.04l-.96-1.44c-1.44-.96-2.88-1.92-4.32-2.88-7.13,5.16-15.12,15.89-24,18.24v-1.44c4.04-8.72,13.73-25.73,4.8-30.72-7.52,5.76-15.04,11.52-22.56,17.28h-1.44v-2.4c3.36-8.48,6.72-16.96,10.08-25.44-4.69-2.58-9.37-7.33-12.48-11.52,2.24-3.04,4.48-6.08,6.72-9.12-1.92-.8-3.84-1.6-5.76-2.4Z"/><path class="cls-1" d="M717.12,747.36c-1.12,1.92-2.24,3.84-3.36,5.76,2.01,2.66,4.7,4.08,5.28,8.16-1.28,1.12-2.56,2.24-3.84,3.36,.96,1.28,1.92,2.56,2.88,3.84,1.92-1.28,3.84-2.56,5.76-3.84,7.91,11.18,19.69,29.53,33.12,14.4v-1.44l-3.36-3.36c-.89,2.5-2.15,3.22-3.84,4.8-1.28-.16-2.56-.32-3.84-.48-6.36-3.04-13.16-12.69-17.28-18.24v-.96c2.24-1.92,4.48-3.84,6.72-5.76l-1.92-1.92c-.48-.64-.96-1.28-1.44-1.92-3.04,1.84-4.05,4.47-8.16,5.28-2.24-2.56-4.48-5.12-6.72-7.68Z"/><path class="cls-1" d="M706.08,771.84c-7.84,4.05-12.42,6.49-16.32,14.4,1.44,1.76,2.88,3.52,4.32,5.28,1.02-6.79,5.65-12.71,13.92-12.48,1.6,1.28,3.2,2.56,4.8,3.84v.96c-6.75,4.67-18.5,15.98-10.56,26.4,7.29,9.56,22.15,.62,22.08-10.08,2.7,1.04,2.55,3.17,4.8,1.92,1.44-.8,2.88-1.6,4.32-2.4-4.29-7.89-16.61-27.3-27.36-27.84Z"/><path class="cls-1" d="M682.08,787.2c-3.95,2.92-7.19,4-7.2,11.04-2.3-.81-2.34-1.92-3.84-3.36-1.92,1.12-3.84,2.24-5.76,3.36l.48,1.44c6.4,10.56,12.8,21.12,19.2,31.68,2.08-.96,4.16-1.92,6.24-2.88-2.75-11.25-15.2-16.61-11.52-31.68,2.16-1.55,3.53-2.58,6.72-3.36-.56-2.66-1.98-5.27-4.32-6.24Z"/><path class="cls-1" d="M715.2,788.64h1.44c6.65,5.25,3.41,14.06-1.44,18.24-4.24,.16-5.93-.42-8.16-1.92-.32-1.92-.64-3.84-.96-5.76,2.37-4.71,6.11-6.7,9.12-10.56Z"/><path class="cls-1" d="M288.48,795.84c-9.89,4.06-16.12,7.18-19.2,17.76-3.81,13.08,8.94,26.33,21.12,24.48,24.23-3.68,27.39-40.13-1.92-42.24Z"/><path class="cls-1" d="M644.64,795.84c-1.6,1.76-3.2,3.52-4.8,5.28,1.16,3.24,2.9,4.5,3.36,8.64-1.6,.96-3.2,1.92-4.8,2.88,.64,1.6,1.28,3.2,1.92,4.8,3.21-.55,4.29-1.95,7.2-1.44,2.57,8.56,9.2,22.54,17.28,25.92,5.71,0,9.56-2.46,12-5.76-1.12-1.76-2.24-3.52-3.36-5.28-1.23,2.95-3.72,4.06-7.2,3.36-4.91-3.87-11.21-16.2-12.48-23.04,2.56-1.28,5.12-2.56,7.68-3.84v-1.44c-.8-1.44-1.6-2.88-2.4-4.32-3.04,1.28-6.08,2.56-9.12,3.84-1.76-3.2-3.52-6.4-5.28-9.6Z"/><path class="cls-1" d="M287.52,803.04c21.37-1.14,16.21,25.5,2.88,28.32-3.24,.69-5.95-1-7.68-1.92-12.8-6.81-3.12-21.79,4.8-26.4Z"/><path class="cls-1" d="M353.28,804.48l-12,35.04-6.72,20.64,6.24,1.92,5.76-15.36,1.92,.48,8.64,20.64,9.12,1.92v-.48l-10.56-24.48,21.6-12-8.16-3.36-1.44,.48-18.24,10.08v-1.44l10.56-31.68-.48-.48-6.24-1.92h0Z"/><path class="cls-1" d="M592.32,810.72c-1.69,1.48-3.61,2.74-2.88,5.28,.62,3.1,1.92,4.01,5.28,4.32,1.67-1.34,2.83-1.74,3.84-3.84,.16-.64,.32-1.28,.48-1.92-1.12-1.28-2.24-2.56-3.36-3.84h-3.36Z"/><path class="cls-1" d="M323.04,812.16c-5.28,12-10.56,24-15.84,36,2.4,.96,4.8,1.92,7.2,2.88,1.96-7.32,8.17-24.85,15.36-26.88,5.09-1.44,7.8,1.77,10.56,2.88,.8-2.08,1.6-4.16,2.4-6.24-3.55-4.26-8.41-2.93-13.92-1.92,.16-1.44,.32-2.88,.48-4.32-2.08-.8-4.16-1.6-6.24-2.4Z"/><path class="cls-1" d="M630.72,815.04c-7.92,3.41-28.1,13.72-12.48,24,4.54,2.98,13.99,1.41,19.68,2.4,.48,.8,.96,1.6,1.44,2.4v3.36c-4.15,5.42-10.13,3.89-17.28,5.28,.96,2.24,1.92,4.48,2.88,6.72,11.47,.34,28.75-9.41,20.16-21.6-3.87-5.49-13.9-3.56-22.08-4.8-.64-.8-1.28-1.6-1.92-2.4,.16-1.12,.32-2.24,.48-3.36,2.04-4.4,7.74-5.52,14.4-5.28v-1.44c-.64-1.6-1.28-3.2-1.92-4.8-1.12-.16-2.24-.32-3.36-.48Z"/><path class="cls-1" d="M401.28,822.24c-10.88,16-21.76,32-32.64,48,.6,1.45,0,.57,.96,1.44,2.24,.64,4.48,1.28,6.72,1.92,2.88-4.32,5.76-8.64,8.64-12.96,7.2,1.6,14.4,3.2,21.6,4.8,.48,5.28,.96,10.56,1.44,15.84,2.72,.48,5.44,.96,8.16,1.44l.48-.48c-2.56-19.36-5.12-38.72-7.68-58.08-2.56-.64-5.12-1.28-7.68-1.92Z"/><path class="cls-1" d="M535.68,824.16c-.96,.64-1.92,1.28-2.88,1.92-.32,1.28-.64,2.56-.96,3.84,.78,1.54,.89,2.01,2.4,2.88,1.13,.95,2.69,1.27,4.32,.48,2.39-1.05,3.04-2.12,3.36-5.28-.64-.96-1.28-1.92-1.92-2.88-1.44-.32-2.88-.64-4.32-.96Z"/><path class="cls-1" d="M456.96,827.04c-.8,7.04-1.6,14.08-2.4,21.12-4.56-1.52-8.41-6.25-16.32-4.32-10.35,2.53-18.81,17.98-13.44,31.2,5.62,13.83,15.44,9.4,26.88,6.72,.16,1.28,.32,2.56,.48,3.84,3.23,.28,5.71,1.2,7.2-.96,2.54-6.41,6.13-52.61,4.32-57.12-2.24-.16-4.48-.32-6.72-.48Z"/><path class="cls-1" d="M600.48,827.04c-1.76,.64-3.52,1.28-5.28,1.92l-.48,.96c4.16,12.16,8.32,24.32,12.48,36.48h1.44c1.92-.64,3.84-1.28,5.76-1.92v-1.92c-2.35-5.74-10.12-33.9-13.92-35.52Z"/><path class="cls-1" d="M576,833.76c-2.56,.8-5.12,1.6-7.68,2.4-2.53,1.6-3.23,4.57-6.24,5.76-.32-1.12-.64-2.24-.96-3.36-2.4,.48-4.8,.96-7.2,1.44,2.88,12.64,5.76,25.28,8.64,37.92l.96,.48c2.24-.64,4.48-1.28,6.72-1.92v-.48c-1.92-7.63-9.98-27.7-1.44-32.64,13.96-13.19,16.73,22.9,19.68,29.28,2.24-.48,4.48-.96,6.72-1.44l.48-.96c-4.07-13.28-3.2-35.51-19.68-36.48Z"/><path class="cls-1" d="M405.12,857.28l-15.36-3.36,.96-1.92,12-16.8v.96l2.4,21.12h0Z"/><path class="cls-1" d="M541.44,841.44c-1.78,.72-4.5,.67-5.76,1.92,2.08,12.8,4.16,25.6,6.24,38.4,2.4-.32,4.8-.64,7.2-.96l.48-.96c-2.4-12.8-4.8-25.6-7.2-38.4h-.96Z"/><path class="cls-1" d="M510.72,844.8c-4.26,2.35-6.33,4.17-9.6,7.2h-.96c-5.67-10.08-15.05-2.98-22.08-.48-.48-1.12-.96-2.24-1.44-3.36-2.4,.48-4.8,.96-7.2,1.44,2.42,9.88-.52,32.27,4.32,39.36,2.24-.32,4.48-.64,6.72-.96-.3-10.44-5.11-29.5,3.36-33.6,14.71-7.61,11.92,22.48,13.44,32.16l.96,.48c2.24-.32,4.48-.64,6.72-.96-.33-10.94-5.14-29.37,3.84-33.6,2.34-1.39,5.06-.71,7.68,0,4.94,7.57,3.33,21.36,5.28,32.16l.48,.48c2.4-.32,4.8-.64,7.2-.96,.46-18.52,1.2-39.93-18.72-39.36Z"/><path class="cls-1" d="M441.6,850.56c15.54-.32,15.27,23.7,4.32,27.36-16.11,7.34-18.58-21.05-4.32-27.36Z"/></svg>